<svg xmlns="http://www.w3.org/2000/svg" viewBox="0 0 900 152" width="900" height="152" role="img" aria-label="Documentation pipeline: author, validate, assist, generate, publish">
<path d="M 131 62 H 229" stroke="#8B949E" stroke-opacity="0.55" stroke-width="1.6" stroke-dasharray="2 5" stroke-linecap="round"/>
<path d="M 311 62 H 409" stroke="#8B949E" stroke-opacity="0.55" stroke-width="1.6" stroke-dasharray="2 5" stroke-linecap="round"/>
<path d="M 491 62 H 589" stroke="#8B949E" stroke-opacity="0.55" stroke-width="1.6" stroke-dasharray="2 5" stroke-linecap="round"/>
<path d="M 671 62 H 769" stroke="#8B949E" stroke-opacity="0.55" stroke-width="1.6" stroke-dasharray="2 5" stroke-linecap="round"/>
<circle cx="90" cy="62" r="30" fill="#6366F1" fill-opacity="0.07" stroke="#6366F1" stroke-opacity="0.55" stroke-width="1.6"/>
<g transform="translate(90,62)"><path d="M -9 -12 H 2 L 9 -5 V 12 H -9 Z" fill="none" stroke="#6366F1" stroke-width="1.9" stroke-linecap="round" stroke-linejoin="round"/><path d="M 2 -12 V -5 H 9" fill="none" stroke="#6366F1" stroke-width="1.9" stroke-linecap="round" stroke-linejoin="round"/><path d="M -5 0 H 5 M -5 4 H 5 M -5 8 H 1" fill="none" stroke="#6366F1" stroke-width="1.9" stroke-linecap="round" stroke-linejoin="round"/></g>
<text x="90" y="119" text-anchor="middle" font-family="ui-sans-serif,-apple-system,BlinkMacSystemFont,Segoe UI,Helvetica,Arial,sans-serif" font-size="12.5" font-weight="700" letter-spacing="1.4" fill="#8B949E">AUTHOR</text>
<text x="90" y="137" text-anchor="middle" font-family="ui-sans-serif,-apple-system,BlinkMacSystemFont,Segoe UI,Helvetica,Arial,sans-serif" font-size="10.5" fill="#7D8590">docs-as-code</text>
<circle cx="270" cy="62" r="30" fill="#0EA5E9" fill-opacity="0.07" stroke="#0EA5E9" stroke-opacity="0.55" stroke-width="1.6"/>
<g transform="translate(270,62)"><path d="M -10 0 L -3 7 L 10 -7" fill="none" stroke="#0EA5E9" stroke-width="1.9" stroke-linecap="round" stroke-linejoin="round"/></g>
<text x="270" y="119" text-anchor="middle" font-family="ui-sans-serif,-apple-system,BlinkMacSystemFont,Segoe UI,Helvetica,Arial,sans-serif" font-size="12.5" font-weight="700" letter-spacing="1.4" fill="#8B949E">VALIDATE</text>
<text x="270" y="137" text-anchor="middle" font-family="ui-sans-serif,-apple-system,BlinkMacSystemFont,Segoe UI,Helvetica,Arial,sans-serif" font-size="10.5" fill="#7D8590">lint · links · spec</text>
<circle cx="450" cy="62" r="30" fill="#14B8A6" fill-opacity="0.07" stroke="#14B8A6" stroke-opacity="0.55" stroke-width="1.6"/>
<g transform="translate(450,62)"><path d="M -1.5 -8.34 C -0.18799999999999994 -1.944,1.944 0.18799999999999994,8.34 1.5 C 1.944 2.8120000000000003,-0.18799999999999994 4.944,-1.5 11.34 C -2.8120000000000003 4.944,-4.944 2.8120000000000003,-11.34 1.5 C -4.944 0.18799999999999994,-2.8120000000000003 -1.944,-1.5 -8.34 Z" fill="#14B8A6"/><path d="M 8.5 -12.34 C 9.012 -9.844,9.844 -9.012,12.34 -8.5 C 9.844 -7.9879999999999995,9.012 -7.156,8.5 -4.66 C 7.9879999999999995 -7.156,7.156 -7.9879999999999995,4.66 -8.5 C 7.156 -9.012,7.9879999999999995 -9.844,8.5 -12.34 Z" fill="#14B8A6"/></g>
<text x="450" y="119" text-anchor="middle" font-family="ui-sans-serif,-apple-system,BlinkMacSystemFont,Segoe UI,Helvetica,Arial,sans-serif" font-size="12.5" font-weight="700" letter-spacing="1.4" fill="#8B949E">ASSIST</text>
<text x="450" y="137" text-anchor="middle" font-family="ui-sans-serif,-apple-system,BlinkMacSystemFont,Segoe UI,Helvetica,Arial,sans-serif" font-size="10.5" fill="#7D8590">agents in CI</text>
<circle cx="630" cy="62" r="30" fill="#22C55E" fill-opacity="0.07" stroke="#22C55E" stroke-opacity="0.55" stroke-width="1.6"/>
<g transform="translate(630,62)"><path d="M -8.5 -5 L -13 0 L -8.5 5" fill="none" stroke="#22C55E" stroke-width="1.9" stroke-linecap="round" stroke-linejoin="round"/><path d="M 8.5 -5 L 13 0 L 8.5 5" fill="none" stroke="#22C55E" stroke-width="1.9" stroke-linecap="round" stroke-linejoin="round"/><path d="M 3 -9 L -3 9" fill="none" stroke="#22C55E" stroke-width="1.9" stroke-linecap="round" stroke-linejoin="round"/></g>
<text x="630" y="119" text-anchor="middle" font-family="ui-sans-serif,-apple-system,BlinkMacSystemFont,Segoe UI,Helvetica,Arial,sans-serif" font-size="12.5" font-weight="700" letter-spacing="1.4" fill="#8B949E">GENERATE</text>
<text x="630" y="137" text-anchor="middle" font-family="ui-sans-serif,-apple-system,BlinkMacSystemFont,Segoe UI,Helvetica,Arial,sans-serif" font-size="10.5" fill="#7D8590">helm-docs · OpenAPI</text>
<circle cx="810" cy="62" r="30" fill="#F59E0B" fill-opacity="0.07" stroke="#F59E0B" stroke-opacity="0.55" stroke-width="1.6"/>
<g transform="translate(810,62)"><path d="M -10 3 V 10 H 10 V 3" fill="none" stroke="#F59E0B" stroke-width="1.9" stroke-linecap="round" stroke-linejoin="round"/><path d="M 0 5 V -10" fill="none" stroke="#F59E0B" stroke-width="1.9" stroke-linecap="round" stroke-linejoin="round"/><path d="M -5.5 -4.5 L 0 -10 L 5.5 -4.5" fill="none" stroke="#F59E0B" stroke-width="1.9" stroke-linecap="round" stroke-linejoin="round"/></g>
<text x="810" y="119" text-anchor="middle" font-family="ui-sans-serif,-apple-system,BlinkMacSystemFont,Segoe UI,Helvetica,Arial,sans-serif" font-size="12.5" font-weight="700" letter-spacing="1.4" fill="#8B949E">PUBLISH</text>
<text x="810" y="137" text-anchor="middle" font-family="ui-sans-serif,-apple-system,BlinkMacSystemFont,Segoe UI,Helvetica,Arial,sans-serif" font-size="10.5" fill="#7D8590">sites · Artifact Hub</text>
</svg>